<?xml version="1.0" encoding="utf-8"?>
<!-- Generator: Adobe Illustrator 15.1.0, SVG Export Plug-In . SVG Version: 6.00 Build 0)  -->
<!DOCTYPE svg PUBLIC "-//W3C//DTD SVG 1.1//EN" "http://www.w3.org/Graphics/SVG/1.1/DTD/svg11.dtd">
<svg version="1.1" id="Layer_1" xmlns="http://www.w3.org/2000/svg" xmlns:xlink="http://www.w3.org/1999/xlink" x="0px" y="0px"
	 width="333px" height="215px" viewBox="0 0 333 215" enable-background="new 0 0 333 215" xml:space="preserve">
<line fill="none" stroke="#000000" stroke-miterlimit="10" x1="64.083" y1="18.311" x2="64.083" y2="36.243"/>
<line fill="none" stroke="#000000" stroke-miterlimit="10" x1="64" y1="36" x2="77.636" y2="54.636"/>
<line fill="none" stroke="#000000" stroke-miterlimit="10" x1="63.789" y1="22.765" x2="71.039" y2="22.765"/>
<g>
	<g>
		<g>
			<path fill="none" stroke="#000000" stroke-miterlimit="10" d="M148.02,19.227c2.272,20.454-9.639,34.66-20.91,35.91"/>
			<line fill="none" stroke="#000000" stroke-miterlimit="10" x1="143.367" y1="50.803" x2="129.867" y2="50.803"/>
		</g>
	</g>
</g>
<line fill="none" stroke="#000000" stroke-miterlimit="10" x1="206.799" y1="54.803" x2="186.344" y2="18.893"/>
<line fill="none" stroke="#000000" stroke-miterlimit="10" x1="203.095" y1="36.636" x2="189.845" y2="36.636"/>
<line fill="none" stroke="#000000" stroke-miterlimit="10" x1="262.039" y1="18.046" x2="262.039" y2="35.978"/>
<line fill="none" stroke="#000000" stroke-miterlimit="10" x1="262.123" y1="35.735" x2="248.486" y2="54.371"/>
<line fill="none" stroke="#000000" stroke-miterlimit="10" x1="262" y1="36" x2="254.75" y2="36"/>
<path fill="none" stroke="#000000" stroke-miterlimit="10" d="M34.895,91.227c-2.272,20.455,9.638,34.66,20.909,35.91"/>
<line fill="none" stroke="#000000" stroke-miterlimit="10" x1="28.282" y1="100.136" x2="41.713" y2="100.136"/>
<line fill="none" stroke="#000000" stroke-miterlimit="10" x1="116" y1="108" x2="110.5" y2="108"/>
<line fill="none" stroke="#000000" stroke-miterlimit="10" x1="118.56" y1="89.917" x2="118.56" y2="126.326"/>
<path fill="none" stroke="#000000" stroke-miterlimit="10" d="M109.59,126.243c0.743-20.5-7.007-34.25-18.159-35.91"/>
<line fill="none" stroke="#000000" stroke-miterlimit="10" x1="174.919" y1="91.007" x2="154.464" y2="126.917"/>
<line fill="none" stroke="#000000" stroke-miterlimit="10" x1="165" y1="109" x2="157.501" y2="109"/>
<path fill="none" stroke="#000000" stroke-miterlimit="10" d="M233.816,126.137c2.271-20.455-9.639-34.66-20.909-35.91"/>
<line fill="none" stroke="#000000" stroke-miterlimit="10" x1="234.18" y1="116.977" x2="226.998" y2="116.977"/>
<line fill="none" stroke="#000000" stroke-miterlimit="10" x1="304.064" y1="89.671" x2="304.064" y2="107.603"/>
<line fill="none" stroke="#000000" stroke-miterlimit="10" x1="304.148" y1="107.36" x2="290.514" y2="125.996"/>
<line fill="none" stroke="#000000" stroke-miterlimit="10" x1="300.609" y1="94.125" x2="294.859" y2="94.125"/>
<path fill="none" stroke="#000000" stroke-miterlimit="10" d="M290.936,89.716c2.273,20.454-9.638,34.659-20.908,35.909"/>
<path fill="none" stroke="#000000" stroke-miterlimit="10" d="M33.27,198.137c-2.272-20.455,9.638-34.66,20.909-35.91"/>
<line fill="none" stroke="#000000" stroke-miterlimit="10" x1="32.907" y1="188.977" x2="40.088" y2="188.977"/>
<path fill="none" stroke="#000000" stroke-miterlimit="10" d="M90.934,162.227c-2.272,20.455,9.638,34.66,20.909,35.91"/>
<line fill="none" stroke="#000000" stroke-miterlimit="10" x1="108.836" y1="193.637" x2="114.336" y2="193.637"/>
<line fill="none" stroke="#000000" stroke-miterlimit="10" x1="100.737" y1="162.227" x2="121.191" y2="198.137"/>
<line fill="none" stroke="#000000" stroke-miterlimit="10" x1="154" y1="170" x2="159.5" y2="170"/>
<line fill="none" stroke="#000000" stroke-miterlimit="10" x1="149.69" y1="160.667" x2="149.69" y2="197.076"/>
<path fill="none" stroke="#000000" stroke-miterlimit="10" d="M158.66,196.993c-0.743-20.5,7.007-34.25,18.158-35.91"/>
<path fill="none" stroke="#000000" stroke-miterlimit="10" d="M210.734,197.762c-2.273-20.455,9.638-34.66,20.908-35.91"/>
<line fill="none" stroke="#000000" stroke-miterlimit="10" x1="239.872" y1="161.602" x2="219.417" y2="197.512"/>
<line fill="none" stroke="#000000" stroke-miterlimit="10" x1="233.455" y1="166.012" x2="227.705" y2="166.012"/>
<line fill="none" stroke="#000000" stroke-miterlimit="10" x1="287.977" y1="163.227" x2="287.977" y2="199.136"/>
<line fill="none" stroke="#000000" stroke-miterlimit="10" x1="281.25" y1="194.636" x2="294.75" y2="194.636"/>
</svg>
